<svg xmlns="http://www.w3.org/2000/svg" viewBox="0 0 220 60" fill="none">
  <!-- Official BMW Roundel + Bold Crisp Wordmark -->
  <g transform="translate(16, 7)">
    <circle cx="23" cy="23" r="22" fill="#000000" stroke="#FFFFFF" stroke-width="2"/>
    <circle cx="23" cy="23" r="15.5" fill="#FFFFFF"/>
    <!-- Bavarian Blue Quadrants -->
    <path d="M23 7.5 A15.5 15.5 0 0 1 38.5 23 L23 23 Z" fill="#0066B1"/>
    <path d="M23 23 L7.5 23 A15.5 15.5 0 0 1 23 7.5 Z" fill="#FFFFFF"/>
    <path d="M23 23 L23 38.5 A15.5 15.5 0 0 1 7.5 23 Z" fill="#0066B1"/>
    <path d="M38.5 23 A15.5 15.5 0 0 1 23 38.5 L23 23 Z" fill="#FFFFFF"/>
    <circle cx="23" cy="23" r="15.5" fill="none" stroke="#E5E7EB" stroke-width="1"/>
    <!-- Letters on Ring -->
    <text x="14.5" y="14" font-family="'Helvetica Neue',Arial,sans-serif" font-size="6" font-weight="900" fill="#FFFFFF">B</text>
    <text x="21" y="11.5" font-family="'Helvetica Neue',Arial,sans-serif" font-size="6" font-weight="900" fill="#FFFFFF">M</text>
    <text x="28.5" y="14" font-family="'Helvetica Neue',Arial,sans-serif" font-size="6" font-weight="900" fill="#FFFFFF">W</text>
  </g>
  <!-- BMW Wordmark -->
  <g fill="#FFFFFF" transform="translate(78, 18)">
    <!-- B -->
    <path d="M0 0 H14 C18 0 21 2 21 5.5 C21 7.8 19.5 9.5 17 10.5 C20 11.5 22 13.5 22 17 C22 21 18.5 24 13.5 24 H0 V0 Z M5 9.5 H13 C15 9.5 16 8.5 16 7 C16 5.5 15 4.5 13 4.5 H5 V9.5 Z M5 19.5 H13.5 C15.5 19.5 16.5 18.2 16.5 16.5 C16.5 14.8 15.5 13.5 13.5 13.5 H5 V19.5 Z"/>
    <!-- M -->
    <path d="M27 0 H33.5 L42 15.5 L50.5 0 H57 V24 H51.8 V8 L43.5 22 H40.5 L32.2 8 V24 H27 V0 Z"/>
    <!-- W -->
    <path d="M62 0 H67.5 L73 18 L78.5 0 H84 L89.5 18 L95 0 H100.5 L92.5 24 H87 L81.2 6.5 L75.5 24 H70 L62 0 Z"/>
  </g>
</svg>
